<svg width="4.2333331mm" height="4.2333336mm" viewBox="0 0 4.2333331 4.2333336" version="1.1" id="svg1" xml:space="preserve" xmlns="http://www.w3.org/2000/svg" xmlns:svg="http://www.w3.org/2000/svg"><defs id="defs1"></defs><g id="layer1" transform="translate(-102.73817,-146.38333)"><g id="g6"><g style="fill:currentColor" id="g1" transform="matrix(0.26458333,0,0,0.26458333,102.73817,146.38333)">
  <path id="circle6" d="M0 8a8 8 0 1 0 16 0a8 8 0 1 0 -16 0" /></g>
  <path style="fill:#ffffff;stroke:none;stroke-width:0.00650555" d="m 104.16593,148.4378 -0.69253,-0.38318 0.0277,-0.0164 c 0.0152,-0.009 0.31536,-0.17501 0.66695,-0.36883 0.35159,-0.19383 0.65223,-0.35959 0.66808,-0.36836 l 0.0289,-0.0159 0.65517,0.36152 c 0.36034,0.19884 0.67338,0.372 0.69564,0.3848 l 0.0405,0.0233 -0.68931,0.38093 c -0.37913,0.20951 -0.69362,0.38194 -0.6989,0.38317 -0.005,8.5e-4 -0.32123,-0.17021 -0.70212,-0.38096 z" id="path5" />
  <path style="fill:#ffffff;stroke:none;stroke-width:0.00650555" d="m 104.16687,149.33927 c -0.38037,-0.21018 -0.6896,-0.3841 -0.68719,-0.38647 0.002,-0.003 0.13147,-0.0745 0.28678,-0.1601 l 0.2824,-0.15577 0.39154,0.21613 c 0.36822,0.20326 0.3935,0.21614 0.42445,0.21614 0.0309,0 0.0563,-0.0129 0.4245,-0.21616 l 0.39158,-0.21617 0.28235,0.15588 c 0.1553,0.0857 0.28433,0.15779 0.28674,0.16012 0.004,0.004 -1.37488,0.76911 -1.38597,0.76874 -0.003,-1.1e-4 -0.3168,-0.17216 -0.69718,-0.38234 z" id="path6" /></g></g>
</svg>
