<?xml version="1.0" encoding="UTF-8" standalone="no"?>
<!-- Created with Inkscape (http://www.inkscape.org/) -->

<svg
   width="83.87291mm"
   height="2.693521mm"
   viewBox="0 0 83.87291 2.693521"
   version="1.1"
   id="svg1"
   xml:space="preserve"
   xmlns:inkscape="http://www.inkscape.org/namespaces/inkscape"
   xmlns:sodipodi="http://sodipodi.sourceforge.net/DTD/sodipodi-0.dtd"
   xmlns="http://www.w3.org/2000/svg"
   xmlns:svg="http://www.w3.org/2000/svg"><sodipodi:namedview
     id="namedview1"
     pagecolor="#ffffff"
     bordercolor="#000000"
     borderopacity="0.25"
     inkscape:showpageshadow="2"
     inkscape:pageopacity="0.0"
     inkscape:pagecheckerboard="0"
     inkscape:deskcolor="#d1d1d1"
     inkscape:document-units="mm" /><defs
     id="defs1" /><g
     inkscape:label="Layer 1"
     inkscape:groupmode="layer"
     id="layer1"
     transform="translate(68.738306,-107.61725)"><path
       style="fill:#111111;stroke:none"
       d="m -68.738306,108.30481 c 0.683064,1.2389 2.864145,1.63753 4.233334,1.53769 4.431367,-0.32313 8.774706,-0.47935 13.229166,-0.47935 15.780521,0 31.548842,0.20078 47.2848796,-0.0367 3.74441803,-0.0565 7.479146,0.42259 11.2127359,0.55183 1.080191,0.0374 3.2031565,0.56458 3.9440525,-0.2505 h 0.26458 0.26459 c 0.77157,0.88408 2.71965,0.93683 3.43958,0 -19.9734274,-1.53553 -39.769198,-1.39749 -59.795834,-1.85596 -5.577676,-0.12769 -11.095588,-0.0623 -16.66875,-0.001 -2.509494,0.0276 -5.025909,-0.61271 -7.408334,0.53407 m 61.1187496,0.52916 -0.264583,0.26459 0.264583,-0.26459 m 11.1125,0.26459 -0.264583,0.26458 0.264583,-0.26458 m 3.1749999,0 -0.2645829,0.26458 0.2645829,-0.26458"
       id="path24" /></g></svg>
