<?xml version="1.0" encoding="UTF-8" standalone="no"?>
<!-- Created with Inkscape (http://www.inkscape.org/) -->

<svg
   width="78.413017mm"
   height="6.6592674mm"
   viewBox="0 0 78.413017 6.6592674"
   version="1.1"
   id="svg1"
   xml:space="preserve"
   xmlns:inkscape="http://www.inkscape.org/namespaces/inkscape"
   xmlns:sodipodi="http://sodipodi.sourceforge.net/DTD/sodipodi-0.dtd"
   xmlns="http://www.w3.org/2000/svg"
   xmlns:svg="http://www.w3.org/2000/svg"><sodipodi:namedview
     id="namedview1"
     pagecolor="#ffffff"
     bordercolor="#000000"
     borderopacity="0.25"
     inkscape:showpageshadow="2"
     inkscape:pageopacity="0.0"
     inkscape:pagecheckerboard="0"
     inkscape:deskcolor="#d1d1d1"
     inkscape:document-units="mm" /><defs
     id="defs1" /><g
     inkscape:label="Layer 1"
     inkscape:groupmode="layer"
     id="layer1"
     transform="translate(69.099245,-176.15936)"><path
       style="fill:#111111;stroke:none"
       d="m 9.3137765,178.94847 v -0.52917 c -0.930999,-0.27837 -2.488075,-0.80066 -3.4395829,-0.53365 -1.275956,0.35804 -2.087639,1.7403 -3.439583,1.93538 -1.207493,0.17423 -1.99268397,-1.05762 -3.17499997,-1.04241 -1.07976303,0.0139 -1.85666203,1.00454 -2.91041703,1.04383 -1.308883,0.0488 -1.916848,-1.53203 -3.185416,-1.54789 -1.21958,-0.0153 -2.175158,1.39924 -3.4291666,0.90358 -1.117802,-0.44182 -1.806637,-1.89502 -3.175,-1.67365 -1.820852,0.29458 -2.581101,2.91049 -4.497917,2.91062 -1.491729,1e-4 -2.220435,-1.82364 -3.704167,-1.90006 -1.243859,-0.0641 -2.047759,1.13632 -3.175,1.44153 -1.466552,0.3971 -2.543283,-1.07051 -3.96875,-0.93256 -1.300562,0.12584 -2.143647,1.56976 -3.439583,1.58259 -1.434307,0.0142 -2.225324,-1.83006 -3.704166,-1.7888 -1.633274,0.0456 -2.579373,2.21635 -4.233334,2.1032 -1.313413,-0.0899 -2.13011,-1.59918 -3.439583,-1.85026 -1.095407,-0.21003 -2.128859,0.79727 -3.164588,0.21948 -1.090964,-0.60862 -1.569765,-2.15686 -2.921033,-2.34553 -1.82423,-0.25471 -2.53354,2.31895 -4.233129,2.28244 -1.26038,-0.0271 -2.129959,-1.42172 -3.439583,-1.52032 -1.295,-0.0975 -2.549584,1.23427 -3.778684,0.77986 -1.570905,-0.5808 -2.620277,-2.24507 -4.4234,-2.32633 -0.900773,-0.0406 -3.535943,1.17149 -3.535943,2.24813 0,1.60845 3.514935,-0.55736 4.329693,-0.34074 1.565808,0.41634 2.585849,2.14679 4.233334,2.31491 1.330575,0.13578 2.374782,-1.1985 3.704166,-0.85377 1.147033,0.29746 1.921181,1.46611 3.175,1.46562 1.604083,-6.1e-4 2.521265,-2.33503 3.968546,-2.14362 1.125055,0.1488 1.714972,1.65956 2.66972,2.16668 1.261971,0.67033 2.312839,-0.43537 3.528184,-0.12861 1.31854,0.33282 2.147414,1.97204 3.591884,1.92884 1.651171,-0.0494 2.559263,-2.24119 4.233333,-2.1385 1.341015,0.0823 2.085471,1.67687 3.439583,1.7696 1.3905,0.0952 2.202135,-1.36329 3.439583,-1.68897 1.279759,-0.3368 2.407024,1.0014 3.704167,1.00098 1.391642,-4.6e-4 2.292669,-1.38932 3.581472,-1.43031 1.39578,-0.0444 2.171887,1.87498 3.826861,1.75898 1.954851,-0.137 2.911879,-2.9627 4.758621,-2.83099 1.127886,0.0804 1.770139,1.46249 2.9153126,1.68428 1.233218,0.23881 2.033395,-0.89365 3.173983,-0.85705 1.099368,0.0353 1.797799,1.27193 2.910417,1.42031 1.20964,0.16131 2.03308,-0.92546 3.17500003,-0.98281 1.147741,-0.0576 1.95668697,1.08861 3.17499997,1.03057 1.528572,-0.0728 2.298309,-1.46656 3.62863,-1.94702 1.0599319,-0.38279 2.1303369,-0.1407 3.2505359,-0.65839"
       id="path60" /></g></svg>
