<?xml version="1.0" encoding="UTF-8" standalone="no"?>
<!-- Created with Inkscape (http://www.inkscape.org/) -->

<svg
   width="210mm"
   height="297mm"
   viewBox="0 0 210 297"
   version="1.1"
   id="svg1"
   inkscape:version="1.3 (0e150ed6c4, 2023-07-21)"
   sodipodi:docname="icon.svg"
   xmlns:inkscape="http://www.inkscape.org/namespaces/inkscape"
   xmlns:sodipodi="http://sodipodi.sourceforge.net/DTD/sodipodi-0.dtd"
   xmlns="http://www.w3.org/2000/svg"
   xmlns:svg="http://www.w3.org/2000/svg">
  <sodipodi:namedview
     id="namedview1"
     pagecolor="#ffffff"
     bordercolor="#000000"
     borderopacity="0.25"
     inkscape:showpageshadow="2"
     inkscape:pageopacity="0.0"
     inkscape:pagecheckerboard="0"
     inkscape:deskcolor="#d1d1d1"
     inkscape:document-units="mm"
     inkscape:zoom="0.71713664"
     inkscape:cx="397.4138"
     inkscape:cy="561.25984"
     inkscape:window-width="1920"
     inkscape:window-height="1011"
     inkscape:window-x="0"
     inkscape:window-y="0"
     inkscape:window-maximized="1"
     inkscape:current-layer="layer2" />
  <defs
     id="defs1" />
  <g
     inkscape:groupmode="layer"
     id="layer2"
     inkscape:label="background">
    <circle
       style="fill:#cccccc;stroke-width:0.264583"
       id="path1-5"
       cx="97.653175"
       cy="150.62207"
       r="24.367605" />
    <path
       sodipodi:type="spiral"
       style="fill:none;fill-rule:evenodd;stroke:#000000;stroke-width:0.264583"
       id="path2"
       sodipodi:cx="150.50037"
       sodipodi:cy="170.02702"
       sodipodi:expansion="1"
       sodipodi:revolution="3"
       sodipodi:radius="24.839184"
       sodipodi:argument="-16.865602"
       sodipodi:t0="0"
       d="m 150.50037,170.02702 c -0.50003,1.14061 -1.78422,-0.11129 -1.89577,-0.83108 -0.30229,-1.95058 1.88418,-3.13682 3.55793,-2.96044 2.99396,0.31549 4.59178,3.54645 4.02513,6.28477 -0.83158,4.01861 -5.22689,6.07771 -9.01163,5.08981 -5.04446,-1.31672 -7.57611,-6.9132 -6.15448,-11.73847 1.78897,-6.07212 8.60216,-9.08082 14.46532,-7.21917 7.10107,2.25472 10.58914,10.2926 8.28384,17.19217 -2.71672,8.1309 -11.98394,12.09974 -19.91901,9.34852 -9.16135,-3.1764 -13.61186,-13.6759 -10.4132,-22.64586 3.63451,-10.19224 15.36827,-15.12503 25.3727,-11.47788 11.22345,4.09155 16.63898,17.06098 12.54256,28.09955 -4.54779,12.25491 -18.75391,18.1535 -30.8264,13.60724"
       transform="translate(-52.437621,-20.828047)" />
  </g>
  <g
     inkscape:label="Layer 1"
     inkscape:groupmode="layer"
     id="layer1"
     style="display:none;opacity:0.927">
    <circle
       style="fill:#ffd42a;stroke-width:0.264583"
       id="path1"
       cx="96.82621"
       cy="148.75797"
       r="24.367605" />
  </g>
</svg>
