<?xml version="1.0" encoding="UTF-8" standalone="no"?>
<!-- Created with Inkscape (http://www.inkscape.org/) -->

<svg
   width="77.226738mm"
   height="79.802582mm"
   viewBox="0 0 77.226738 79.802582"
   version="1.1"
   id="svg1"
   xml:space="preserve"
   xmlns:inkscape="http://www.inkscape.org/namespaces/inkscape"
   xmlns:sodipodi="http://sodipodi.sourceforge.net/DTD/sodipodi-0.dtd"
   xmlns="http://www.w3.org/2000/svg"
   xmlns:svg="http://www.w3.org/2000/svg"><sodipodi:namedview
     id="namedview1"
     pagecolor="#ffffff"
     bordercolor="#000000"
     borderopacity="0.25"
     inkscape:showpageshadow="2"
     inkscape:pageopacity="0.0"
     inkscape:pagecheckerboard="0"
     inkscape:deskcolor="#d1d1d1"
     inkscape:document-units="mm" /><defs
     id="defs1" /><g
     inkscape:label="Layer 1"
     inkscape:groupmode="layer"
     id="layer1"
     transform="translate(-42.32607,-19.349859)"><path
       style="fill:#ffcc00"
       d="m 84.992713,19.394429 c 0.402183,-0.06081 0.997495,-0.05919 1.322916,0.0036 0.325421,0.0628 -0.0036,0.11256 -0.731242,0.110574 -0.727604,-0.002 -0.993857,-0.05337 -0.591674,-0.114186 z"
       id="path53" /><path
       style="fill:#ffcc00"
       d="m 56.347928,29.538561 c 0,-0.05494 0.20836,-0.263301 0.463021,-0.463021 0.419644,-0.329107 0.429003,-0.319749 0.09989,0.0999 -0.345644,0.440729 -0.562916,0.580887 -0.562916,0.363126 z"
       id="path51" /><path
       style="fill:#ffcc00"
       d="m 104.99751,31.292102 c -0.3291,-0.419644 -0.31975,-0.429002 0.0999,-0.0999 0.25466,0.199719 0.46302,0.408079 0.46302,0.463021 0,0.217761 -0.21727,0.0776 -0.56292,-0.363126 z"
       id="path50" /><path
       style="fill:#ffcc00"
       d="m 107.41251,33.474915 c -0.64268,-0.654844 -1.10898,-1.190625 -1.03622,-1.190625 0.0728,0 0.65813,0.535781 1.30081,1.190625 0.64268,0.654843 1.10897,1.190625 1.03621,1.190625 -0.0728,0 -0.65812,-0.535782 -1.3008,-1.190625 z"
       id="path49" /><path
       style="fill:#ffcc00"
       d="m 108.4371,39.494185 c -0.32911,-0.419643 -0.31975,-0.429002 0.0999,-0.09989 0.44073,0.345643 0.58089,0.562915 0.36313,0.562915 -0.0549,0 -0.2633,-0.208359 -0.46302,-0.463021 z"
       id="path48" /><path
       style="fill:#ffcc00"
       d="m 118.41628,45.81616 c -0.33802,-0.546923 -0.66157,-1.642359 -0.44569,-1.508936 0.13076,0.08081 0.36233,0.504333 0.51461,0.941163 0.26438,0.758411 0.22901,1.04983 -0.0689,0.567773 z"
       id="path44" /><path
       style="fill:#ffcc00"
       d="m 111.41066,48.923642 c -0.163,-0.467589 -0.25006,-0.896463 -0.19347,-0.953054 0.0566,-0.05659 0.23626,0.279678 0.39926,0.747267 0.163,0.467588 0.25006,0.896462 0.19347,0.953053 -0.0566,0.05659 -0.23626,-0.279678 -0.39926,-0.747266 z"
       id="path41" /><path
       style="fill:#ffcc00"
       d="m 116.72451,53.318665 c 0.005,-0.436563 0.0647,-0.583125 0.13177,-0.325694 0.0671,0.257431 0.0627,0.614619 -0.01,0.79375 -0.0725,0.179132 -0.12736,-0.03149 -0.12197,-0.468056 z"
       id="path39" /><path
       style="fill:#ffcc00"
       d="m 119.39083,56.625957 c 0,-0.654844 0.0516,-0.922735 0.11466,-0.595313 0.0631,0.327422 0.0631,0.863203 0,1.190625 -0.0631,0.327422 -0.11466,0.05953 -0.11466,-0.595312 z"
       id="path38" /><path
       style="fill:#ffcc00"
       d="m 116.16251,74.220749 c 0,-0.145521 0.17016,-0.56224 0.37813,-0.926042 0.20797,-0.363802 0.37812,-0.542396 0.37812,-0.396875 0,0.145521 -0.17015,0.56224 -0.37812,0.926042 -0.20797,0.363802 -0.37813,0.542395 -0.37813,0.396875 z"
       id="path34" /><path
       style="fill:#ffcc00"
       d="m 114.68855,76.998874 c 0.22576,-0.436563 0.47,-0.79375 0.54276,-0.79375 0.0728,0 -0.0524,0.357187 -0.27817,0.79375 -0.22576,0.436562 -0.47,0.79375 -0.54276,0.79375 -0.0728,0 0.0524,-0.357188 0.27817,-0.79375 z"
       id="path32" /><path
       style="fill:#ffcc00"
       d="m 107.94168,77.263457 c 0.31086,-0.436562 0.62473,-0.79375 0.69749,-0.79375 0.0728,0 -0.12205,0.357188 -0.43291,0.79375 -0.31086,0.436563 -0.62473,0.79375 -0.69749,0.79375 -0.0728,0 0.12205,-0.357187 0.43291,-0.79375 z"
       id="path31" /><path
       style="fill:#ffcc00"
       d="m 113.35581,79.181686 c 0.40788,-0.618463 0.79205,-1.124479 0.8537,-1.124479 0.19084,0 -0.82223,1.610305 -1.21959,1.938571 -0.20665,0.170713 -0.042,-0.195628 0.36589,-0.814092 z"
       id="path30" /><path
       style="fill:#ffcc00"
       d="M 77.365964,98.836478 C 72.419838,98.073896 67.635409,96.589407 64.020845,94.695819 58.798586,91.959996 53.735992,87.719847 50.442083,83.322998 46.749361,78.393796 43.118762,69.33383 43.118762,65.048043 c 0,-0.865782 -0.104567,-1.509524 -0.23237,-1.430537 -0.375242,0.231912 -0.561454,-1.289255 -0.560317,-4.577226 0.0011,-3.101771 0.617684,-7.963478 1.043376,-8.22657 0.126525,-0.0782 0.429926,-0.91579 0.674225,-1.861319 1.076443,-4.166246 3.204415,-8.745485 5.654455,-12.167973 1.823034,-2.546616 5.997472,-7.151039 6.469628,-7.136028 0.171854,0.0055 -0.163789,0.439533 -0.745872,0.964597 -1.262921,1.13921 -0.45879,0.616762 1.086584,-0.705957 0.597621,-0.511518 1.112121,-1.049095 1.143333,-1.194616 0.03121,-0.14552 0.256624,-0.498035 0.500916,-0.783365 0.436978,-0.510386 0.432391,-0.511457 -0.283437,-0.06615 -2.033212,1.264844 -2.174266,1.309148 -1.12448,0.353194 2.856698,-2.601357 7.818952,-5.331271 12.772116,-7.026397 4.394289,-1.503863 10.22838,-1.791604 18.835022,-0.928955 1.863036,0.186733 6.900538,1.629793 9.127714,2.614756 1.608236,0.711238 2.340914,1.468739 0.79643,0.823412 -1.751521,-0.731832 -1.366484,-0.421082 1.066636,0.860845 1.309689,0.690029 2.900299,1.588962 3.534699,1.997629 0.63439,0.408667 1.07816,0.621214 0.98614,0.472326 -0.092,-0.148887 -0.87896,-0.703012 -1.74876,-1.231387 -2.01317,-1.22294 -2.04996,-1.469168 -0.0601,-0.402325 2.56762,1.376607 6.18735,4.27332 7.94635,6.359122 2.58563,3.066011 3.39419,4.099272 3.03386,3.876973 -0.5422,-0.334496 -0.39207,-0.01217 0.87163,1.871457 1.29407,1.928882 2.62082,4.539497 2.41278,4.747544 -0.0703,0.07033 0.10947,0.664436 0.39956,1.320232 0.99146,2.241371 0.26607,1.460069 -1.0832,-1.166685 -1.19445,-2.325345 -4.2877,-6.945354 -4.65014,-6.945354 -0.0751,0 0.52514,1.025719 1.33388,2.279377 0.80875,1.253657 1.42579,2.324035 1.37121,2.378617 -0.0546,0.05458 -0.74126,-0.82231 -1.52595,-1.948648 -0.78469,-1.126339 -2.80001,-3.417107 -4.4785,-5.090596 -2.6955,-2.687477 -3.36089,-3.199665 -5.69934,-4.387101 -1.45616,-0.739416 -2.801065,-1.293223 -2.988687,-1.230682 -0.187623,0.06254 0.917005,0.932682 2.454727,1.933647 7.43562,4.840142 13.03275,12.663895 14.82593,20.723889 0.24949,1.121417 0.4021,2.090456 0.33914,2.153421 -0.063,0.06296 -0.32422,-0.775175 -0.58056,-1.862533 -0.59343,-2.517194 -1.7642,-5.559816 -2.9669,-7.710441 -0.51756,-0.925485 -0.9915,-1.6827 -1.0532,-1.6827 -0.0617,0 0.42493,1.06944 1.0814,2.376534 1.20801,2.405295 2.32894,5.455229 2.62725,7.148466 0.0897,0.509323 -0.24312,-0.271246 -0.73967,-1.734596 -1.93194,-5.693503 -4.77167,-10.328464 -8.75241,-14.285536 -3.60265,-3.581236 -10.384527,-7.845886 -11.683977,-7.347241 -0.331791,0.127321 -0.395275,0.08001 -0.236769,-0.176462 0.139125,-0.225109 0.113945,-0.286997 -0.07041,-0.173059 -0.157843,0.09755 -1.320652,-0.122176 -2.58402,-0.488286 -1.263369,-0.36611 -2.551605,-0.65693 -2.862748,-0.646267 -0.311143,0.01066 0.446317,0.297546 1.683244,0.63752 2.788745,0.766495 6.182112,2.092227 7.408334,2.894312 0.509322,0.333154 1.461822,0.912116 2.116666,1.286581 1.40742,0.804819 5.55625,4.099711 5.55625,4.412628 0,0.119538 0.55099,0.83017 1.22441,1.579183 0.67343,0.749013 1.15071,1.435544 1.06063,1.525625 -0.0901,0.09008 -0.016,0.350714 0.16465,0.579184 0.18064,0.228469 -0.86219,-0.782461 -2.3174,-2.246511 -2.53459,-2.549987 -5.4904,-4.863608 -7.606769,-5.954094 -1.448112,-0.746157 -1.212292,-0.433886 0.418924,0.554734 0.776111,0.470372 1.411111,1.020687 1.411111,1.22292 0,0.481898 0.03265,0.49143 -1.457643,-0.425557 -1.534395,-0.944122 -4.813919,-2.460184 -4.974491,-2.299612 -0.0623,0.0623 0.558183,0.385796 1.378851,0.718881 0.820667,0.333084 2.432238,1.170634 3.581269,1.861222 1.149031,0.690588 2.003248,1.118238 1.898258,0.950335 -0.32094,-0.513289 -0.31323,-1.00319 0.0139,-0.882497 0.17024,0.06281 0.2768,0.256992 0.23682,0.431519 -0.04,0.174528 0.0315,0.252898 0.15895,0.174155 0.34785,-0.214986 4.54353,3.132426 4.54383,3.625179 7e-5,0.117729 -0.13082,0.133127 -0.29085,0.03422 -0.47125,-0.291246 0.14778,0.720949 1.24037,2.028187 2.35357,2.815924 4.55799,6.716479 4.74452,8.395051 0.10516,0.946283 0.0901,0.934345 -0.61024,-0.485049 -0.79375,-1.608634 -1.58548,-2.813901 -1.78148,-2.711979 -0.35005,0.182035 -0.38038,0.0098 -0.0932,-0.529166 0.29779,-0.558861 0.28715,-0.571012 -0.17377,-0.198438 -0.28299,0.228755 -0.40681,0.256775 -0.29228,0.06615 0.10928,-0.181901 0.0884,-0.330729 -0.0463,-0.330729 -0.13477,0 -0.5633,-0.48093 -0.95229,-1.068733 -2.7475,-4.151756 -9.261722,-8.857013 -14.796584,-10.687652 -3.607586,-1.193198 -9.924255,-2.050731 -11.287115,-1.532308 -0.490488,0.186579 0.254315,0.287178 2.910417,0.393104 2.395258,0.09552 4.309463,0.332346 5.818552,0.719864 2.280728,0.585667 8.490517,3.370074 8.864125,3.974584 0.112141,0.181449 -0.562461,-0.09866 -1.499116,-0.62247 -2.569202,-1.43678 -5.520395,-2.586761 -6.13654,-2.391205 -0.406689,0.129079 -0.06557,0.340646 1.434059,0.889423 2.908808,1.064456 4.952462,2.169414 7.340453,3.96882 3.383809,2.549776 7.014869,7.257741 8.750089,11.345215 0.93768,2.208782 1.11842,3.252666 0.2128,1.229066 -1.89977,-4.245039 -4.12877,-7.559707 -6.97492,-10.372167 -2.264634,-2.237824 -4.208579,-3.604003 -7.016948,-4.93142 -2.006861,-0.948572 -6.207671,-2.304625 -7.054121,-2.277122 -0.238382,0.0077 0.524094,0.297384 1.694393,0.643641 2.543837,0.752647 4.915332,1.661566 5.280518,2.023855 0.145521,0.144367 -0.330729,0.0079 -1.058334,-0.303174 -1.916589,-0.819505 -5.613026,-1.851349 -6.578035,-1.836229 -0.520856,0.0082 0.05716,0.24399 1.550952,0.632782 2.620832,0.682129 4.548315,1.381199 5.159375,1.87123 0.218281,0.175048 1.11125,0.694103 1.984375,1.153456 1.570523,0.826256 4.120127,2.679523 3.686314,2.679523 -0.123539,0 0.301214,0.535781 0.943891,1.190625 0.64268,0.654844 1.07532,1.190625 0.96141,1.190625 -0.11391,0 -1.12096,-0.675662 -2.2379,-1.501472 -1.116939,-0.825809 -2.418417,-1.784876 -2.892173,-2.13126 -2.283358,-1.66946 -6.017031,-2.884457 -9.589667,-3.120631 -0.945885,-0.06253 -2.52954,-0.183754 -3.519231,-0.269389 -2.200729,-0.190424 -4.903432,0.0946 -4.379102,0.461822 0.239647,0.167839 0.04863,0.199819 -0.578774,0.0969 -1.187923,-0.194875 -4.567668,0.673524 -6.58538,1.692062 -1.976906,0.997939 -6.410835,4.348199 -8.118999,6.134684 -3.19499,3.341484 -4.906199,6.503494 -6.063895,11.204997 -0.659483,2.678221 -0.705289,3.205937 -0.574145,6.614583 0.100679,2.616821 0.307479,4.286673 0.704487,5.688542 0.846621,2.989486 1.880161,5.57946 2.289135,5.736398 0.200492,0.07694 0.298657,0.24647 0.218144,0.376743 -0.08051,0.130272 -0.03075,0.236859 0.110587,0.236859 0.141335,0 0.803502,0.765891 1.471482,1.701981 1.37339,1.924634 4.211795,4.765592 6.138313,6.143835 1.592337,1.139169 5.962718,3.255022 7.08179,3.428541 8.988331,1.393697 16.068909,0.153276 22.445632,-3.932169 1.531187,-0.981003 2.512999,-1.339398 1.84829,-0.674688 -0.504832,0.504832 -0.369562,0.792696 0.277812,0.591208 l 0.595313,-0.185285 -0.529167,0.623692 c -0.464618,0.547612 -0.406017,0.532504 0.480398,-0.123848 1.23703,-0.915965 1.57725,-0.760847 0.43652,0.199019 -0.453876,0.381909 -0.730885,0.694381 -0.615577,0.694381 0.115307,0 0.796257,-0.565547 1.513217,-1.256771 0.71696,-0.691224 1.2184,-1.078177 1.11431,-0.859896 -0.10408,0.218281 0.35275,-0.198437 1.01519,-0.926042 0.66244,-0.727604 1.20688,-1.219041 1.20987,-1.092082 0.003,0.126959 0.20915,0.06743 0.45813,-0.132292 0.29876,-0.239658 0.2469,-0.06969 -0.15252,0.499881 -0.33287,0.474654 -0.71381,0.795892 -0.84653,0.713862 -0.13273,-0.08203 -0.17068,0.03495 -0.0843,0.259953 0.0863,0.225004 0.28197,0.331854 0.43473,0.237445 0.16356,-0.101089 0.19903,-0.04431 0.0863,0.138127 -0.1053,0.170379 -0.28638,0.251114 -0.40239,0.179411 -0.11602,-0.0717 -0.4239,0.104949 -0.68419,0.39256 -0.34279,0.378786 -0.37536,0.522927 -0.11815,0.522927 0.21062,0 0.0391,0.349871 -0.42146,0.859896 -0.76618,0.848414 -0.76294,0.847531 0.24215,-0.06615 2.5675,-2.333972 5.69761,-6.873858 7.74115,-11.227706 0.48253,-1.028043 0.88161,-1.768856 0.88683,-1.64625 0.0184,0.431321 -1.93917,6.408277 -2.55689,7.806866 -0.34378,0.778361 -0.91374,1.840048 -1.26658,2.359303 -0.35285,0.519256 -0.57933,1.044755 -0.5033,1.167775 0.076,0.123021 -0.43338,0.906804 -1.13203,1.741739 -0.69865,0.834936 -0.99074,1.27994 -0.64909,0.988898 1.06005,-0.903028 3.95087,-4.811102 4.79343,-6.480218 0.44133,-0.874265 0.86442,-1.589574 0.94021,-1.589574 0.0758,0 0.005,0.24732 -0.15635,0.549601 -0.16177,0.30228 -0.33096,1.100488 -0.37597,1.773795 -0.0735,1.098784 -0.0443,1.172825 0.28482,0.722747 0.20167,-0.275797 0.36485,-0.627521 0.36262,-0.781608 -0.002,-0.154088 -0.13035,-0.101566 -0.28473,0.116715 -0.21941,0.310251 -0.25871,0.315297 -0.18004,0.02312 0.0553,-0.205567 0.29429,-0.402181 0.53099,-0.436921 0.29291,-0.04299 0.3796,0.06912 0.27143,0.351015 -0.0966,0.251749 -0.0499,0.346756 0.11923,0.24226 0.153,-0.09456 0.6084,-0.948916 1.01201,-1.898578 0.40361,-0.949663 0.78419,-1.676315 0.84572,-1.614783 0.16331,0.163314 -2.02246,4.851703 -2.91116,6.244306 -0.68637,1.075557 -0.69488,1.114514 -0.088,0.403094 0.36948,-0.433142 1.28344,-1.891658 2.03103,-3.241146 0.74759,-1.349488 1.40095,-2.453615 1.4519,-2.453615 0.21343,0 -0.76746,2.368867 -1.64236,3.966329 -1.65934,3.029716 -3.29519,5.076543 -6.96293,8.712181 -3.43442,3.404368 -3.64419,3.7992 -1.0935,2.058195 0.64093,-0.437469 1.08038,-0.657973 0.97658,-0.49001 -0.70528,1.141156 2.63465,-1.356615 4.19093,-3.134195 1.75161,-2.000692 1.90821,-2.129354 1.25015,-1.027103 -0.87281,1.461948 -0.67132,1.550962 0.52821,0.233353 0.59616,-0.654843 0.97008,-1.012031 0.83093,-0.79375 -0.68587,1.075917 -2.92793,3.969062 -3.88993,5.019552 -0.59588,0.650701 -0.83593,0.978122 -0.53343,0.727604 0.64428,-0.533568 1.01726,-0.595935 0.74611,-0.12476 -0.11058,0.192153 -0.0894,0.238345 0.0505,0.110243 0.13248,-0.121267 0.24627,-0.359392 0.25289,-0.529166 0.007,-0.169775 0.17175,-0.27348 0.36696,-0.230456 0.19522,0.04302 0.66245,-0.195102 1.0383,-0.529167 0.47081,-0.418469 0.56241,-0.450401 0.2945,-0.102663 -0.46106,0.598429 -5.26758,4.821117 -6.35227,5.580689 -0.41562,0.291041 -0.80825,0.729633 -0.87251,0.974647 -0.13066,0.498195 -5.712086,3.296745 -8.278839,4.151046 -4.776499,1.589778 -12.744526,2.263922 -17.709926,1.498369 z M 104.5021,76.438477 c 0,-0.145521 -0.11907,-0.190998 -0.26459,-0.101062 -0.14552,0.08994 -0.26458,0.282584 -0.26458,0.428105 0,0.145521 0.11906,0.190999 0.26458,0.101062 0.14552,-0.08994 0.26459,-0.282584 0.26459,-0.428105 z M 46.486502,58.544186 c -0.05708,-0.545703 -0.103786,-0.09922 -0.103786,0.992187 0,1.091407 0.0467,1.537891 0.103786,0.992188 0.05708,-0.545703 0.05708,-1.438672 0,-1.984375 z m 0.255197,-3.963715 c -0.06708,-0.257431 -0.126382,-0.110869 -0.131774,0.325694 -0.0054,0.436562 0.04949,0.647188 0.12197,0.468056 0.07247,-0.179131 0.07689,-0.536319 0.0098,-0.79375 z m 0.256458,-1.724827 c -0.0734,-0.181901 -0.133452,-0.03307 -0.133452,0.330729 0,0.363802 0.06005,0.51263 0.133452,0.330729 0.0734,-0.181901 0.0734,-0.479557 0,-0.661458 z m 1.662708,-5.857528 c 0.161444,-0.420364 0.239373,-0.818461 0.173175,-0.884659 -0.163144,-0.163144 -1.39681,3.783537 -1.59257,5.09487 -0.08638,0.578603 0.131607,0.03997 0.484407,-1.196954 0.352799,-1.236927 0.773544,-2.592893 0.934988,-3.013257 z m 1.114995,-3.839619 c 0.854408,-1.804551 1.620738,-3.213732 1.702955,-3.131515 0.08222,0.08222 0.02078,0.389981 -0.136533,0.68392 -0.705459,1.318161 -0.154771,0.671998 1.360395,-1.596253 2.166254,-3.24295 6.257216,-7.329081 9.466085,-9.454905 1.382448,-0.91585 2.573073,-1.728152 2.645833,-1.805115 0.292261,-0.309145 -1.281428,0.602654 -2.73237,1.583141 -0.84796,0.573017 -1.601277,0.982317 -1.674037,0.909557 -0.201582,-0.201583 2.910033,-2.241214 5.58899,-3.663526 2.796761,-1.484855 2.843845,-1.710524 0.06758,-0.323914 -5.878006,2.935782 -11.337676,7.841114 -14.740387,13.243747 -1.294262,2.054956 -3.163947,6.012443 -3.542053,7.497322 l -0.168432,0.661459 0.304251,-0.661459 c 0.167338,-0.363802 1.003312,-2.137908 1.85772,-3.942459 z m 1.809568,-3.35572 c 0,-1.000768 7.640173,-9.370571 8.5537,-9.370571 0.15575,0 -0.425195,0.623389 -1.290988,1.385309 -2.279779,2.006264 -3.661719,3.496708 -5.46189,5.890733 -1.864574,2.479674 -1.800822,2.405524 -1.800822,2.094529 z m 7.538629,3.329429 c 1.530595,-2.188493 3.018007,-3.862168 4.596455,-5.172053 0.780702,-0.647871 1.310484,-1.177947 1.177294,-1.177947 -0.833299,0 -5.845142,5.473942 -6.866524,7.499628 -0.528144,1.047457 -0.209052,0.711764 1.092775,-1.149628 z m 53.158913,-8.334375 c -0.23837,-0.363802 -0.48626,-0.661458 -0.55088,-0.661458 -0.12966,0 0.11986,0.479308 0.51652,0.992187 0.45557,0.589054 0.48041,0.350019 0.0344,-0.330729 z m -10.69129,-0.761353 c 0,-0.05494 -0.20836,-0.263302 -0.46302,-0.463021 -0.41965,-0.329107 -0.429,-0.319749 -0.0999,0.0999 0.34565,0.440729 0.56292,0.580887 0.56292,0.363126 z M 90.628989,31.19761 c 0.12333,-0.199551 -0.0088,-0.232686 -0.414393,-0.103946 -0.446142,0.1416 -0.543075,0.104265 -0.386605,-0.148908 0.150441,-0.24342 0.07968,-0.288333 -0.25309,-0.160638 -0.254055,0.09749 -0.601008,0.185623 -0.771007,0.195851 -0.430308,0.02589 0.64789,0.469165 1.196649,0.491974 0.246074,0.01023 0.528874,-0.113222 0.628446,-0.274333 z m -3.925635,-0.131506 c -0.08792,-0.08792 -0.316122,-0.09732 -0.507118,-0.02089 -0.211066,0.08446 -0.148372,0.147156 0.159853,0.159852 0.278915,0.01149 0.435184,-0.05105 0.347265,-0.138964 z m 22.296656,0.07368 c 0,-0.04739 -0.32742,-0.374816 -0.7276,-0.727604 l -0.72761,-0.641433 0.64144,0.727604 c 0.59951,0.680056 0.81377,0.848939 0.81377,0.641433 z m -20.835935,-0.35364 c -0.181901,-0.0734 -0.479557,-0.0734 -0.661458,0 -0.181902,0.0734 -0.03307,0.133452 0.330729,0.133452 0.363802,0 0.51263,-0.06005 0.330729,-0.133452 z m -1.460721,-0.249207 c -0.08792,-0.08792 -0.316122,-0.09732 -0.507118,-0.02089 -0.211066,0.08446 -0.148372,0.147157 0.159853,0.159852 0.278915,0.01149 0.435184,-0.05104 0.347265,-0.138964 z m 9.129102,-4.591388 c -0.775641,-0.646921 -3.250821,-1.460639 -6.41161,-2.107822 -3.027354,-0.619863 -7.559442,-1.007821 -7.324056,-0.626959 0.08878,0.143652 1.326529,0.336879 2.750551,0.429395 2.746586,0.178439 6.497481,1.025088 9.336005,2.107315 2.110435,0.804633 2.421099,0.841946 1.64911,0.198071 z m 0.73214,-2.921676 c -0.218281,-0.141065 -0.515938,-0.256481 -0.661458,-0.256481 -0.145521,0 -0.08599,0.115416 0.132291,0.256481 0.218281,0.141064 0.515938,0.25648 0.661459,0.25648 0.14552,0 0.08599,-0.115416 -0.132292,-0.25648 z m -2.116667,-0.79375 c -0.218281,-0.141065 -0.575469,-0.249936 -0.79375,-0.241936 -0.261687,0.0096 -0.216625,0.092 0.132292,0.241936 0.727362,0.312558 1.145108,0.312558 0.661458,0 z m -6.014235,-1.496467 c -0.179132,-0.07248 -0.536319,-0.07689 -0.79375,-0.0098 -0.257431,0.06708 -0.110869,0.126382 0.325693,0.131774 0.436563,0.0054 0.647188,-0.04949 0.468057,-0.12197 z m -1.52639,-0.222311 c -0.673173,-0.227715 -2.819309,-0.321819 -2.483077,-0.108878 0.201526,0.127629 0.902192,0.224476 1.557035,0.215216 0.654844,-0.0093 1.071563,-0.05711 0.926042,-0.106338 z m 18.897686,16.60159 -0.64144,-0.727604 0.72761,0.641433 c 0.40018,0.352789 0.7276,0.68021 0.7276,0.727605 0,0.207505 -0.21426,0.03862 -0.81377,-0.641434 z"
       id="path29" /></g></svg>
